<?xml version="1.0" encoding="UTF-8"?>
<!DOCTYPE svg PUBLIC "-//W3C//DTD SVG 1.1//EN" "http://www.w3.org/Graphics/SVG/1.1/DTD/svg11.dtd">
<svg xmlns="http://www.w3.org/2000/svg" version="1.1" width="300px" height="81px" style="shape-rendering:geometricPrecision; text-rendering:geometricPrecision; image-rendering:optimizeQuality; fill-rule:evenodd; clip-rule:evenodd" xmlns:xlink="http://www.w3.org/1999/xlink">
<g><path style="opacity:0.997" fill="#e31b18" d="M -0.5,-0.5 C 20.8333,-0.5 42.1667,-0.5 63.5,-0.5C 63.5,20.8333 63.5,42.1667 63.5,63.5C 59.5633,63.7935 55.73,63.4601 52,62.5C 51.1783,49.5912 51.3449,36.7579 52.5,24C 49.5184,23.502 46.5184,23.3354 43.5,23.5C 43.5,36.8333 43.5,50.1667 43.5,63.5C 29.5,63.5 15.5,63.5 1.5,63.5C 14.9939,62.6689 28.6605,62.1689 42.5,62C 28.8374,61.5001 15.1707,61.3334 1.5,61.5C 1.66662,41.1639 1.49996,20.8306 1,0.5C 0.500042,21.4974 0.333375,42.4974 0.5,63.5C 0.166667,63.5 -0.166667,63.5 -0.5,63.5C -0.5,42.1667 -0.5,20.8333 -0.5,-0.5 Z"/></g>
<g><path style="opacity:1" fill="#ec1d1a" d="M 61.5,0.5 C 62.4972,20.9933 62.8305,41.6599 62.5,62.5C 59.5,62.5 56.5,62.5 53.5,62.5C 53.3334,49.1625 53.5001,35.8292 54,22.5C 54.4999,35.4957 54.6666,48.4957 54.5,61.5C 56.8333,61.5 59.1667,61.5 61.5,61.5C 61.5,41.1667 61.5,20.8333 61.5,0.5 Z"/></g>
<g><path style="opacity:1" fill="#f41e1a" d="M 1.5,63.5 C 1.16667,63.5 0.833333,63.5 0.5,63.5C 0.333375,42.4974 0.500042,21.4974 1,0.5C 1.49996,20.8306 1.66662,41.1639 1.5,61.5C 15.1707,61.3334 28.8374,61.5001 42.5,62C 28.6605,62.1689 14.9939,62.6689 1.5,63.5 Z"/></g>
<g><path style="opacity:0.867" fill="#000000" d="M 73.5,21.5 C 82.1731,21.3336 90.8397,21.5002 99.5,22C 106.324,23.4911 110.491,27.6577 112,34.5C 112.5,44.1609 112.666,53.8276 112.5,63.5C 108.167,63.5 103.833,63.5 99.5,63.5C 99.6665,53.4944 99.4998,43.4944 99,33.5C 94.5986,32.5333 90.0986,32.2 85.5,32.5C 85.5,42.8333 85.5,53.1667 85.5,63.5C 81.5,63.5 77.5,63.5 73.5,63.5C 73.5,49.5 73.5,35.5 73.5,21.5 Z"/></g>
<g><path style="opacity:0.865" fill="#000000" d="M 120.5,21.5 C 130.837,21.852 141.171,22.352 151.5,23C 156.351,24.8691 159.184,28.3691 160,33.5C 160.5,43.4944 160.666,53.4944 160.5,63.5C 148.829,63.6665 137.162,63.4999 125.5,63C 119.835,61.0086 117.501,57.0086 118.5,51C 117.698,43.4698 121.032,39.1365 128.5,38C 135.191,37.8309 141.858,37.3309 148.5,36.5C 147.872,34.7419 146.872,33.2419 145.5,32C 137.173,31.5003 128.84,31.3336 120.5,31.5C 120.5,28.1667 120.5,24.8333 120.5,21.5 Z M 130.5,47.5 C 136.5,47.5 142.5,47.5 148.5,47.5C 148.5,49.8333 148.5,52.1667 148.5,54.5C 142.5,54.5 136.5,54.5 130.5,54.5C 130.5,52.1667 130.5,49.8333 130.5,47.5 Z"/></g>
<g><path style="opacity:0.864" fill="#000000" d="M 184.5,21.5 C 190.833,21.5 197.167,21.5 203.5,21.5C 203.789,25.1064 203.456,28.6064 202.5,32C 196.167,32.3333 189.833,32.6667 183.5,33C 180.035,35.5251 178.368,39.0251 178.5,43.5C 178.463,47.5947 180.13,50.7613 183.5,53C 190.158,53.4996 196.825,53.6663 203.5,53.5C 203.5,56.8333 203.5,60.1667 203.5,63.5C 194.75,63.9099 186.084,63.4099 177.5,62C 167.275,56.0249 163.775,47.1916 167,35.5C 170.079,27.2424 175.912,22.5758 184.5,21.5 Z"/></g>
<g><path style="opacity:0.866" fill="#000000" d="M 210.5,21.5 C 219.173,21.3336 227.84,21.5002 236.5,22C 241.427,22.2141 245.261,24.3808 248,28.5C 249.457,40.0651 249.957,51.7318 249.5,63.5C 238.162,63.6665 226.828,63.4999 215.5,63C 208.026,59.8796 205.526,54.3796 208,46.5C 209.573,41.9291 212.74,39.0957 217.5,38C 224.158,37.5004 230.825,37.3337 237.5,37.5C 237.822,35.2776 237.155,33.4443 235.5,32C 227.173,31.5003 218.84,31.3336 210.5,31.5C 210.5,28.1667 210.5,24.8333 210.5,21.5 Z M 222.5,46.5 C 227.405,47.4454 232.405,47.7787 237.5,47.5C 237.5,49.8333 237.5,52.1667 237.5,54.5C 231.824,54.6661 226.157,54.4994 220.5,54C 220.539,52.7553 220.205,51.4219 219.5,50C 220.071,48.4009 221.071,47.2342 222.5,46.5 Z"/></g>
<g><path style="opacity:0.893" fill="#000000" d="M 299.5,34.5 C 299.5,40.1667 299.5,45.8333 299.5,51.5C 297.776,56.3941 294.443,59.8941 289.5,62C 283.258,63.3696 276.925,63.8696 270.5,63.5C 270.5,69.1667 270.5,74.8333 270.5,80.5C 266.5,80.5 262.5,80.5 258.5,80.5C 258.5,60.8333 258.5,41.1667 258.5,21.5C 268.233,21.1091 277.9,21.6091 287.5,23C 293.376,25.0451 297.376,28.8785 299.5,34.5 Z M 270.5,32.5 C 284.075,29.5753 289.575,34.9086 287,48.5C 286.215,50.286 285.049,51.786 283.5,53C 279.179,53.499 274.846,53.6657 270.5,53.5C 270.5,46.5 270.5,39.5 270.5,32.5 Z"/></g>
</svg>
